<svg width="170" height="48" viewBox="0 0 170 48" fill="none" xmlns="http://www.w3.org/2000/svg">
<path d="M0 0H15.2158L23.8149 28.842H23.9476L32.6798 0H47.4978V46.9675H37.7076V13.7585H37.5748L28.1809 46.9675H19.1849L9.923 13.7585H9.79049V46.9675H0V0Z" fill="#0066B3"/>
<path d="M142.051 0H132.26V9.26104H142.051V0Z" fill="#0066B3"/>
<path d="M142.051 12.5677H132.26V46.9673H142.051V12.5677Z" fill="#0066B3"/>
<path d="M157.267 0H147.476V46.9683H157.267V0Z" fill="#0066B3"/>
<path d="M51.118 29.7686C51.118 19.7117 59.2711 11.5592 69.3275 11.5592C79.385 11.5592 87.5381 19.7117 87.5381 29.7686C87.5381 39.8247 79.385 47.9781 69.3275 47.9781C59.2711 47.9781 51.118 39.8247 51.118 29.7686ZM69.309 38.1273C73.9196 38.1273 77.6566 34.3908 77.6566 29.7793C77.6566 25.1696 73.9196 21.4323 69.309 21.4323C64.6993 21.4323 60.9622 25.1696 60.9622 29.7793C60.9622 34.3908 64.6993 38.1273 69.309 38.1273Z" fill="#ED1B2E"/>
<path d="M91.6427 46.9675V0H101.433V15.2149C104.146 12.8996 107.254 11.7746 110.826 11.7746C120.75 11.7746 128.159 20.1768 128.159 29.8342C128.159 39.4925 120.683 47.7619 110.826 47.7619C107.122 47.7619 103.947 46.7033 101.433 43.925V46.9675H91.6427ZM109.888 38.127C114.498 38.127 118.236 34.3906 118.236 29.7791C118.236 25.1694 114.498 21.432 109.888 21.432C105.278 21.432 101.54 25.1694 101.54 29.7791C101.54 34.3906 105.278 38.127 109.888 38.127Z" fill="#0066B3"/>
<path d="M163.487 4.6975H162.508V0.830839H161.087V0H164.908V0.830839H163.487V4.6975Z" fill="#0066B3"/>
<path d="M170 4.6975H169.083V0.772813H169.07L168.195 4.6975H167.232L166.376 0.772813H166.364V4.6975H165.447V0H166.878L167.73 3.70413H167.742L168.579 0H170V4.6975Z" fill="#0066B3"/>
</svg>
